<svg width="24" height="24" viewBox="0 0 24 24" fill="none" xmlns="http://www.w3.org/2000/svg">
<path fill-rule="evenodd" clip-rule="evenodd" d="M5.20711 4.79292L4.5 4.08582L3.08579 5.50003L3.79289 6.20714L5.4827 7.89694C3.51776 9.36291 2 11.0325 2 12C2 14 8.48546 19 12 19C13.0092 19 14.2633 18.5878 15.5385 17.9527L16.7929 19.2071L17.5 19.9142L18.9142 18.5L18.2071 17.7929L5.20711 4.79292ZM14.034 16.4482L13.3517 15.7659C12.9294 15.9175 12.4744 16 12 16C9.79086 16 8 14.2092 8 12C8 11.5257 8.08257 11.0706 8.23413 10.6484L6.91338 9.32762C6.89525 9.34072 6.87714 9.35385 6.85907 9.36701C5.91373 10.0551 5.11011 10.7724 4.56679 11.3871C4.3464 11.6364 4.19217 11.8427 4.09204 12C4.19217 12.1573 4.3464 12.3636 4.56679 12.613C5.11011 13.2277 5.91373 13.9449 6.85907 14.6331C7.80027 15.3182 8.82352 15.9318 9.78101 16.3662C10.7754 16.8173 11.5358 17 12 17C12.435 17 13.13 16.8395 14.034 16.4482ZM11.5303 13.9446C10.803 13.7695 10.2305 13.197 10.0555 12.4697L11.5303 13.9446ZM10.6483 8.23416L12.4697 10.0555C13.197 10.2305 13.7695 10.803 13.9445 11.5304L15.7659 13.3517C15.9174 12.9295 16 12.4744 16 12C16 9.79089 14.2091 8.00003 12 8.00003C11.5256 8.00003 11.0706 8.0826 10.6483 8.23416ZM17.1409 14.6331L17.0866 14.6724L18.5173 16.1031C20.4822 14.6371 22 12.9676 22 12C22 10 15.5145 5.00003 12 5.00003C10.9908 5.00003 9.73673 5.41227 8.46155 6.04736L9.96605 7.55186C10.87 7.16051 11.565 7.00003 12 7.00003C12.4642 7.00003 13.2246 7.1828 14.219 7.6339C15.1765 8.06824 16.1997 8.6819 17.1409 9.36701C18.0863 10.0551 18.8899 10.7724 19.4332 11.3871C19.6536 11.6364 19.8078 11.8427 19.908 12C19.8078 12.1573 19.6536 12.3636 19.4332 12.613C18.8899 13.2277 18.0863 13.9449 17.1409 14.6331ZM20.028 11.7793C20.0289 11.7769 20.0292 11.7758 20.0291 11.7758C20.029 11.7758 20.028 11.7785 20.0264 11.7836C20.027 11.7819 20.0276 11.7805 20.028 11.7793ZM3.97088 11.7758C3.971 11.7758 3.97203 11.7785 3.97364 11.7836C3.97158 11.7784 3.97077 11.7758 3.97088 11.7758ZM3.97088 12.2242C3.97077 12.2243 3.97158 12.2217 3.97364 12.2164C3.97203 12.2216 3.971 12.2242 3.97088 12.2242ZM20.0286 12.2226L20.0264 12.2164L20.0285 12.2228L20.0291 12.2242C20.0291 12.2242 20.0291 12.2242 20.0291 12.224L20.0286 12.2226Z" fill="#8C8E93"/>
<path fill-rule="evenodd" clip-rule="evenodd" d="M5.20711 4.79292L4.5 4.08582L3.08579 5.50003L3.79289 6.20714L5.4827 7.89694C3.51776 9.36291 2 11.0325 2 12C2 14 8.48546 19 12 19C13.0092 19 14.2633 18.5878 15.5385 17.9527L16.7929 19.2071L17.5 19.9142L18.9142 18.5L18.2071 17.7929L5.20711 4.79292ZM14.034 16.4482L13.3517 15.7659C12.9294 15.9175 12.4744 16 12 16C9.79086 16 8 14.2092 8 12C8 11.5257 8.08257 11.0706 8.23413 10.6484L6.91338 9.32762C6.89525 9.34072 6.87714 9.35385 6.85907 9.36701C5.91373 10.0551 5.11011 10.7724 4.56679 11.3871C4.3464 11.6364 4.19217 11.8427 4.09204 12C4.19217 12.1573 4.3464 12.3636 4.56679 12.613C5.11011 13.2277 5.91373 13.9449 6.85907 14.6331C7.80027 15.3182 8.82352 15.9318 9.78101 16.3662C10.7754 16.8173 11.5358 17 12 17C12.435 17 13.13 16.8395 14.034 16.4482ZM11.5303 13.9446C10.803 13.7695 10.2305 13.197 10.0555 12.4697L11.5303 13.9446ZM10.6483 8.23416L12.4697 10.0555C13.197 10.2305 13.7695 10.803 13.9445 11.5304L15.7659 13.3517C15.9174 12.9295 16 12.4744 16 12C16 9.79089 14.2091 8.00003 12 8.00003C11.5256 8.00003 11.0706 8.0826 10.6483 8.23416ZM17.1409 14.6331L17.0866 14.6724L18.5173 16.1031C20.4822 14.6371 22 12.9676 22 12C22 10 15.5145 5.00003 12 5.00003C10.9908 5.00003 9.73673 5.41227 8.46155 6.04736L9.96605 7.55186C10.87 7.16051 11.565 7.00003 12 7.00003C12.4642 7.00003 13.2246 7.1828 14.219 7.6339C15.1765 8.06824 16.1997 8.6819 17.1409 9.36701C18.0863 10.0551 18.8899 10.7724 19.4332 11.3871C19.6536 11.6364 19.8078 11.8427 19.908 12C19.8078 12.1573 19.6536 12.3636 19.4332 12.613C18.8899 13.2277 18.0863 13.9449 17.1409 14.6331ZM20.028 11.7793C20.0289 11.7769 20.0292 11.7758 20.0291 11.7758C20.029 11.7758 20.028 11.7785 20.0264 11.7836C20.027 11.7819 20.0276 11.7805 20.028 11.7793ZM3.97088 11.7758C3.971 11.7758 3.97203 11.7785 3.97364 11.7836C3.97158 11.7784 3.97077 11.7758 3.97088 11.7758ZM3.97088 12.2242C3.97077 12.2243 3.97158 12.2217 3.97364 12.2164C3.97203 12.2216 3.971 12.2242 3.97088 12.2242ZM20.0286 12.2226L20.0264 12.2164L20.0285 12.2228L20.0291 12.2242C20.0291 12.2242 20.0291 12.2242 20.0291 12.224L20.0286 12.2226Z" fill="#8C8E93"/>
<path fill-rule="evenodd" clip-rule="evenodd" d="M5.20711 4.79292L4.5 4.08582L3.08579 5.50003L3.79289 6.20714L5.4827 7.89694C3.51776 9.36291 2 11.0325 2 12C2 14 8.48546 19 12 19C13.0092 19 14.2633 18.5878 15.5385 17.9527L16.7929 19.2071L17.5 19.9142L18.9142 18.5L18.2071 17.7929L5.20711 4.79292ZM14.034 16.4482L13.3517 15.7659C12.9294 15.9175 12.4744 16 12 16C9.79086 16 8 14.2092 8 12C8 11.5257 8.08257 11.0706 8.23413 10.6484L6.91338 9.32762C6.89525 9.34072 6.87714 9.35385 6.85907 9.36701C5.91373 10.0551 5.11011 10.7724 4.56679 11.3871C4.3464 11.6364 4.19217 11.8427 4.09204 12C4.19217 12.1573 4.3464 12.3636 4.56679 12.613C5.11011 13.2277 5.91373 13.9449 6.85907 14.6331C7.80027 15.3182 8.82352 15.9318 9.78101 16.3662C10.7754 16.8173 11.5358 17 12 17C12.435 17 13.13 16.8395 14.034 16.4482ZM11.5303 13.9446C10.803 13.7695 10.2305 13.197 10.0555 12.4697L11.5303 13.9446ZM10.6483 8.23416L12.4697 10.0555C13.197 10.2305 13.7695 10.803 13.9445 11.5304L15.7659 13.3517C15.9174 12.9295 16 12.4744 16 12C16 9.79089 14.2091 8.00003 12 8.00003C11.5256 8.00003 11.0706 8.0826 10.6483 8.23416ZM17.1409 14.6331L17.0866 14.6724L18.5173 16.1031C20.4822 14.6371 22 12.9676 22 12C22 10 15.5145 5.00003 12 5.00003C10.9908 5.00003 9.73673 5.41227 8.46155 6.04736L9.96605 7.55186C10.87 7.16051 11.565 7.00003 12 7.00003C12.4642 7.00003 13.2246 7.1828 14.219 7.6339C15.1765 8.06824 16.1997 8.6819 17.1409 9.36701C18.0863 10.0551 18.8899 10.7724 19.4332 11.3871C19.6536 11.6364 19.8078 11.8427 19.908 12C19.8078 12.1573 19.6536 12.3636 19.4332 12.613C18.8899 13.2277 18.0863 13.9449 17.1409 14.6331ZM20.028 11.7793C20.0289 11.7769 20.0292 11.7758 20.0291 11.7758C20.029 11.7758 20.028 11.7785 20.0264 11.7836C20.027 11.7819 20.0276 11.7805 20.028 11.7793ZM3.97088 11.7758C3.971 11.7758 3.97203 11.7785 3.97364 11.7836C3.97158 11.7784 3.97077 11.7758 3.97088 11.7758ZM3.97088 12.2242C3.97077 12.2243 3.97158 12.2217 3.97364 12.2164C3.97203 12.2216 3.971 12.2242 3.97088 12.2242ZM20.0286 12.2226L20.0264 12.2164L20.0285 12.2228L20.0291 12.2242C20.0291 12.2242 20.0291 12.2242 20.0291 12.224L20.0286 12.2226Z" fill="#8C8E93"/>
</svg>
